<svg viewBox="0 0 18 18" xmlns="http://www.w3.org/2000/svg">
  <path d="M7.17188 8.4375H2.39062C2.05496 8.4375 1.73304 8.30416 1.49569 8.06681C1.25834 7.82946 1.125 7.50754 1.125 7.17188V2.39062C1.125 2.05496 1.25834 1.73304 1.49569 1.49569C1.73304 1.25834 2.05496 1.125 2.39062 1.125H7.17188C7.50754 1.125 7.82946 1.25834 8.06681 1.49569C8.30416 1.73304 8.4375 2.05496 8.4375 2.39062V7.17188C8.4375 7.50754 8.30416 7.82946 8.06681 8.06681C7.82946 8.30416 7.50754 8.4375 7.17188 8.4375ZM15.6094 8.4375H10.8281C10.4925 8.4375 10.1705 8.30416 9.93319 8.06681C9.69584 7.82946 9.5625 7.50754 9.5625 7.17188V2.39062C9.5625 2.05496 9.69584 1.73304 9.93319 1.49569C10.1705 1.25834 10.4925 1.125 10.8281 1.125H15.6094C15.945 1.125 16.267 1.25834 16.5043 1.49569C16.7417 1.73304 16.875 2.05496 16.875 2.39062V7.17188C16.875 7.50754 16.7417 7.82946 16.5043 8.06681C16.267 8.30416 15.945 8.4375 15.6094 8.4375ZM7.17188 16.875H2.39062C2.05496 16.875 1.73304 16.7417 1.49569 16.5043C1.25834 16.267 1.125 15.945 1.125 15.6094V10.8281C1.125 10.4925 1.25834 10.1705 1.49569 9.93319C1.73304 9.69584 2.05496 9.5625 2.39062 9.5625H7.17188C7.50754 9.5625 7.82946 9.69584 8.06681 9.93319C8.30416 10.1705 8.4375 10.4925 8.4375 10.8281V15.6094C8.4375 15.945 8.30416 16.267 8.06681 16.5043C7.82946 16.7417 7.50754 16.875 7.17188 16.875ZM15.6094 16.875H10.8281C10.4925 16.875 10.1705 16.7417 9.93319 16.5043C9.69584 16.267 9.5625 15.945 9.5625 15.6094V10.8281C9.5625 10.4925 9.69584 10.1705 9.93319 9.93319C10.1705 9.69584 10.4925 9.5625 10.8281 9.5625H15.6094C15.945 9.5625 16.267 9.69584 16.5043 9.93319C16.7417 10.1705 16.875 10.4925 16.875 10.8281V15.6094C16.875 15.945 16.7417 16.267 16.5043 16.5043C16.267 16.7417 15.945 16.875 15.6094 16.875Z" fill="currentColor"/>
</svg>
