<svg viewBox="0 0 18 18" xmlns="http://www.w3.org/2000/svg">
  <path d="M4.78125 5.0625C4.78125 4.59651 5.15901 4.21875 5.625 4.21875H15.75C16.216 4.21875 16.5938 4.59651 16.5938 5.0625C16.5938 5.52849 16.216 5.90625 15.75 5.90625H5.625C5.15901 5.90625 4.78125 5.52849 4.78125 5.0625ZM4.78125 9C4.78125 8.53401 5.15901 8.15625 5.625 8.15625H15.75C16.216 8.15625 16.5938 8.53401 16.5938 9C16.5938 9.46599 16.216 9.84375 15.75 9.84375H5.625C5.15901 9.84375 4.78125 9.46599 4.78125 9ZM4.78125 12.9375C4.78125 12.4715 5.15901 12.0938 5.625 12.0938H15.75C16.216 12.0938 16.5938 12.4715 16.5938 12.9375C16.5938 13.4035 16.216 13.7812 15.75 13.7812H5.625C5.15901 13.7812 4.78125 13.4035 4.78125 12.9375ZM1.6875 5.0625C1.6875 4.44118 2.19118 3.9375 2.8125 3.9375C3.43382 3.9375 3.9375 4.44118 3.9375 5.0625C3.9375 5.68382 3.43382 6.1875 2.8125 6.1875C2.19118 6.1875 1.6875 5.68382 1.6875 5.0625ZM1.6875 9C1.6875 8.37868 2.19118 7.875 2.8125 7.875C3.43382 7.875 3.9375 8.37868 3.9375 9C3.9375 9.62132 3.43382 10.125 2.8125 10.125C2.19118 10.125 1.6875 9.62132 1.6875 9ZM1.6875 12.9375C1.6875 12.3162 2.19118 11.8125 2.8125 11.8125C3.43382 11.8125 3.9375 12.3162 3.9375 12.9375C3.9375 13.5588 3.43382 14.0625 2.8125 14.0625C2.19118 14.0625 1.6875 13.5588 1.6875 12.9375Z" fill="currentColor" />
</svg>
